<svg xmlns="http://www.w3.org/2000/svg" viewBox="0 0 98.57 104.07"><defs><style>.cls-1{fill:#003d18;}.cls-1,.cls-2,.cls-3{fill-rule:evenodd;}.cls-2{fill:#006837;}.cls-3{fill:#22b573;}.cls-4{fill:#6cbd47;}.cls-5{fill:#aacf3c;}.cls-6{fill:#1b3f1d;}.cls-7{fill:#69bc48;}.cls-8{fill:#add8ac;}.cls-9{fill:#168354;}.cls-10{fill:#236030;}</style></defs><g id="OBJECTS"><path class="cls-1" d="M62.56,34.68a53.37,53.37,0,0,1,9.89-6.54c-3.8.4-7.17,2.31-9.89,6.54Zm47.86,54.56c-16.87.28-39.64,10.24-47.18,22.48,7.8-11.21,39.63,9.25,55.63,10.51V44a38.38,38.38,0,0,1-8.45-1.94Z" transform="translate(-27.24 -18.16)"/><path class="cls-2" d="M62.56,34.68a55.48,55.48,0,0,1,18.12-10c-7.38.52-13.75,3.14-18.12,10Zm47.86,54.56C93.64,89.52,71,99.38,63.36,111.53c8.6-12.31,45.63-2.88,62.45-3.2V30.09a89.3,89.3,0,0,1-15.39-1.7Z" transform="translate(-27.24 -18.16)"/><path class="cls-3" d="M62.56,34.68C76.2,18.4,94.27,18.13,116.1,18.16V96.4C100.39,96.7,75,98.19,65.16,109c9-11,29.64-19.54,45.26-19.8v-68c-10.59-.65-31.36-.37-47.86,13.41Z" transform="translate(-27.24 -18.16)"/><rect class="cls-4" x="41.85" y="35.93" width="16.33" height="16.33" transform="translate(-39.28 1.53) rotate(-19.94)"/><polygon class="cls-5" points="40.25 34.81 30.39 38.38 33.97 48.25 43.82 44.66 40.25 34.81"/><polygon class="cls-6" points="31.19 52.2 18.26 56.88 22.95 69.82 35.88 65.13 31.19 52.2"/><polygon class="cls-7" points="10.47 39.66 0 43.13 3.8 52.7 14.26 49.24 10.47 39.66"/><polygon class="cls-8" points="56.04 44.08 49.34 46.51 51.77 53.21 58.47 50.78 56.04 44.08"/><polygon class="cls-9" points="48.4 55.53 41.71 57.96 44.13 64.66 50.83 62.23 48.4 55.53"/><rect class="cls-10" x="89.29" y="75.83" width="4.35" height="4.35" transform="translate(-48.34 17.65) rotate(-19.91)"/></g></svg>